<?xml version="1.0" standalone="no"?>
<!DOCTYPE svg PUBLIC "-//W3C//DTD SVG 20010904//EN"
 "http://www.w3.org/TR/2001/REC-SVG-20010904/DTD/svg10.dtd">
<svg version="1.0" xmlns="http://www.w3.org/2000/svg"
 width="260.000000pt" height="260.000000pt" viewBox="0 0 260.000000 260.000000"
 preserveAspectRatio="xMidYMid meet">
<metadata>
Created by potrace 1.14, written by Peter Selinger 2001-2017
</metadata>
<g transform="translate(0.000000,260.000000) scale(0.100000,-0.100000)"
fill="#000000" stroke="none">
<path d="M0 1300 l0 -1300 1300 0 1300 0 0 1300 0 1300 -1300 0 -1300 0 0
-1300z m2456 1147 l24 -28 0 -1129 0 -1129 -24 -28 -24 -28 -1127 0 -1127 0
-24 28 -24 28 0 1122 c0 880 3 1127 13 1147 26 52 -18 50 1175 47 l1114 -2 24
-28z"/>
<path d="M645 2274 c-96 -21 -176 -66 -239 -135 -71 -76 -91 -134 -90 -254 2
-203 112 -339 357 -440 196 -81 252 -119 288 -191 20 -42 21 -51 10 -98 -20
-91 -95 -136 -222 -136 -210 0 -309 108 -279 303 6 38 9 72 6 74 -2 3 -42 -4
-88 -14 l-83 -19 0 -99 c1 -84 4 -107 24 -145 67 -131 190 -193 406 -206 241
-15 427 71 508 235 30 61 32 72 32 171 0 98 -2 110 -32 173 -63 132 -179 218
-421 313 -206 81 -268 133 -266 225 1 59 23 94 80 123 32 17 57 21 144 21 95
0 110 -3 163 -28 84 -41 112 -93 112 -204 0 -59 4 -83 12 -83 7 0 44 5 83 12
l70 12 0 51 c0 105 -54 219 -131 275 -93 67 -298 97 -444 64z"/>
<path d="M1330 2195 l0 -65 160 0 160 0 0 -600 0 -600 205 0 205 0 0 600 0
600 165 0 165 0 0 65 0 65 -530 0 -530 0 0 -65z"/>
<path d="M260 570 l0 -120 35 0 35 0 0 49 0 48 41 6 c49 6 79 31 79 66 0 52
-33 71 -124 71 l-66 0 0 -120z m120 75 c13 -34 -3 -75 -30 -75 -17 0 -20 6
-20 50 0 44 3 50 20 50 13 0 24 -10 30 -25z"/>
<path d="M470 570 l0 -120 35 0 35 0 0 60 c0 46 3 60 15 60 21 0 35 -32 35
-79 0 -41 0 -41 39 -41 l38 0 -11 49 c-6 26 -16 55 -23 63 -10 11 -8 17 7 31
21 17 25 43 12 64 -13 20 -61 33 -123 33 l-59 0 0 -120z m115 60 c0 -29 -4
-36 -22 -38 -21 -3 -23 1 -23 38 0 37 2 41 23 38 18 -2 22 -9 22 -38z"/>
<path d="M744 676 c-50 -22 -69 -102 -40 -170 25 -59 128 -74 172 -25 29 32
27 150 -2 179 -27 27 -89 35 -130 16z m75 -20 c8 -9 11 -43 9 -92 -2 -60 -7
-79 -20 -88 -28 -17 -42 7 -46 77 -6 94 23 145 57 103z"/>
<path d="M940 570 l0 -122 76 4 c69 3 79 6 100 31 19 23 24 39 24 87 0 48 -5
64 -24 87 -21 25 -31 28 -100 31 l-76 4 0 -122z m120 85 c7 -8 12 -44 12 -85
0 -74 -11 -100 -43 -100 -17 0 -19 9 -19 100 0 91 2 100 19 100 10 0 24 -7 31
-15z"/>
<path d="M1170 596 c0 -121 13 -141 90 -141 77 0 90 20 90 141 0 56 -4 94 -10
94 -6 0 -10 -36 -10 -88 0 -102 -11 -125 -55 -120 l-30 3 -3 103 -3 102 -34 0
-35 0 0 -94z"/>
<path d="M1434 671 c-50 -31 -67 -101 -40 -166 25 -58 119 -72 166 -25 24 24
26 60 5 60 -9 0 -15 -9 -15 -24 0 -50 -63 -62 -88 -16 -15 30 -10 133 8 155
24 29 63 14 71 -27 3 -12 8 -15 18 -9 19 12 4 50 -26 62 -37 14 -65 11 -99
-10z"/>
<path d="M1590 680 c0 -5 14 -10 30 -10 l30 0 0 -110 0 -110 35 0 35 0 0 110
0 110 30 0 c17 0 30 5 30 10 0 6 -38 10 -95 10 -57 0 -95 -4 -95 -10z"/>
<path d="M1790 570 l0 -120 35 0 35 0 0 120 0 120 -35 0 -35 0 0 -120z"/>
<path d="M1944 676 c-50 -22 -69 -102 -40 -170 25 -59 128 -74 172 -25 29 32
27 150 -2 179 -27 27 -89 35 -130 16z m75 -20 c8 -9 11 -43 9 -92 -2 -60 -7
-79 -20 -88 -28 -17 -42 7 -46 77 -6 94 23 145 57 103z"/>
<path d="M2140 570 c0 -134 17 -167 22 -42 l3 77 49 -77 c39 -61 55 -78 73
-78 23 0 23 1 23 120 0 133 -17 167 -22 43 l-3 -77 -50 77 c-38 58 -56 77 -72
77 -23 0 -23 -2 -23 -120z"/>
</g>
</svg>
